<svg width="26" height="25" fill="none" xmlns="http://www.w3.org/2000/svg"><path fill-rule="evenodd" clip-rule="evenodd" d="M10.019 3.726h13.858a1 1 0 110 2H9.98c-.358 1.527-1.447 2.637-2.734 2.637S4.87 7.253 4.513 5.726h-2.39a1 1 0 010-2h2.35C4.784 2.106 5.908.905 7.246.905c1.339 0 2.462 1.2 2.773 2.821zM2.122 12.25a1 1 0 100 2h11.524c.46 1.26 1.443 2.13 2.583 2.13 1.14 0 2.125-.87 2.584-2.13h5.064a1 1 0 100-2h-4.806c-.154-1.87-1.367-3.328-2.842-3.328-1.474 0-2.688 1.457-2.841 3.328H2.122zM.94 21.175a1 1 0 011-1h7.453c.335-1.573 1.441-2.729 2.754-2.729s2.42 1.155 2.754 2.73h9.161a1 1 0 010 2h-9.16c-.336 1.574-1.442 2.729-2.755 2.729s-2.419-1.155-2.754-2.73H1.939a1 1 0 01-1-1z" fill="#84D52C"/><path fill-rule="evenodd" clip-rule="evenodd" d="M10.019 3.726h13.858a1 1 0 110 2H9.98c-.358 1.527-1.447 2.637-2.734 2.637S4.87 7.253 4.513 5.726h-2.39a1 1 0 010-2h2.35C4.784 2.106 5.908.905 7.246.905c1.339 0 2.462 1.2 2.773 2.821zM2.122 12.25a1 1 0 100 2h11.524c.46 1.26 1.443 2.13 2.583 2.13 1.14 0 2.125-.87 2.584-2.13h5.064a1 1 0 100-2h-4.806c-.154-1.87-1.367-3.328-2.842-3.328-1.474 0-2.688 1.457-2.841 3.328H2.122zM.94 21.175a1 1 0 011-1h7.453c.335-1.573 1.441-2.729 2.754-2.729s2.42 1.155 2.754 2.73h9.161a1 1 0 010 2h-9.16c-.336 1.574-1.442 2.729-2.755 2.729s-2.419-1.155-2.754-2.73H1.939a1 1 0 01-1-1z" fill="url(#paint0_linear_132_637)" fill-opacity=".2"/><defs><linearGradient id="paint0_linear_132_637" x1="25.061" y1=".905" x2="1.068" y2="2.356" gradientUnits="userSpaceOnUse"><stop stop-color="#6BAB2B"/><stop offset="1" stop-color="#84D52C" stop-opacity="0"/></linearGradient></defs></svg>