<?xml version="1.0" encoding="utf-8"?><svg viewBox="0 0 26 25" xmlns="http://www.w3.org/2000/svg" xmlns:xlink="http://www.w3.org/1999/xlink"><style>:root>svg{display:none}:root>svg:target{display:block}</style><svg fill="none" viewBox="0 0 26 25" id="Union" xmlns="http://www.w3.org/2000/svg"><path fill-rule="evenodd" clip-rule="evenodd" d="M10.019 3.726h13.858a1 1 0 1 1 0 2H9.98c-.358 1.527-1.447 2.637-2.734 2.637S4.87 7.253 4.513 5.726h-2.39a1 1 0 0 1 0-2h2.35C4.784 2.106 5.908.905 7.246.905c1.339 0 2.462 1.2 2.773 2.821zM2.122 12.25a1 1 0 1 0 0 2h11.524c.46 1.26 1.443 2.13 2.583 2.13 1.14 0 2.125-.87 2.584-2.13h5.064a1 1 0 1 0 0-2h-4.806c-.154-1.87-1.367-3.328-2.842-3.328-1.474 0-2.688 1.457-2.841 3.328H2.122zM.94 21.175a1 1 0 0 1 1-1h7.453c.335-1.573 1.441-2.729 2.754-2.729s2.42 1.155 2.754 2.73h9.161a1 1 0 0 1 0 2h-9.16c-.336 1.574-1.442 2.729-2.755 2.729s-2.419-1.155-2.754-2.73H1.939a1 1 0 0 1-1-1z" fill="#84D52C"/><path fill-rule="evenodd" clip-rule="evenodd" d="M10.019 3.726h13.858a1 1 0 1 1 0 2H9.98c-.358 1.527-1.447 2.637-2.734 2.637S4.87 7.253 4.513 5.726h-2.39a1 1 0 0 1 0-2h2.35C4.784 2.106 5.908.905 7.246.905c1.339 0 2.462 1.2 2.773 2.821zM2.122 12.25a1 1 0 1 0 0 2h11.524c.46 1.26 1.443 2.13 2.583 2.13 1.14 0 2.125-.87 2.584-2.13h5.064a1 1 0 1 0 0-2h-4.806c-.154-1.87-1.367-3.328-2.842-3.328-1.474 0-2.688 1.457-2.841 3.328H2.122zM.94 21.175a1 1 0 0 1 1-1h7.453c.335-1.573 1.441-2.729 2.754-2.729s2.42 1.155 2.754 2.73h9.161a1 1 0 0 1 0 2h-9.16c-.336 1.574-1.442 2.729-2.755 2.729s-2.419-1.155-2.754-2.73H1.939a1 1 0 0 1-1-1z" fill="url(#aa)" fill-opacity=".2"/><defs><linearGradient id="aa" x1="25.061" y1=".905" x2="1.068" y2="2.356" gradientUnits="userSpaceOnUse"><stop stop-color="#6BAB2B"/><stop offset="1" stop-color="#84D52C" stop-opacity="0"/></linearGradient></defs></svg><svg fill="none" viewBox="0 0 13 8" id="arrow" xmlns="http://www.w3.org/2000/svg"><path d="M6.938.5a.823.823 0 0 1 .595.252L12.7 6.04a.872.872 0 0 1-.01 1.209.832.832 0 0 1-1.18.01L6.938 2.578 2.364 7.257a.832.832 0 0 1-1.18-.01.871.871 0 0 1-.01-1.207L6.342.752A.838.838 0 0 1 6.938.5z" fill="#959595"/></svg><svg fill="none" viewBox="0 0 16 16" id="arrowUp" xmlns="http://www.w3.org/2000/svg"><path d="M7 16V3.825l-5.6 5.6L0 8l8-8 8 8-1.4 1.425-5.6-5.6V16H7z" fill="#84D52C"/><path d="M7 16V3.825l-5.6 5.6L0 8l8-8 8 8-1.4 1.425-5.6-5.6V16H7z" fill="url(#ca)" fill-opacity=".2"/><defs><linearGradient id="ca" x1="16" y1="0" x2=".085" y2=".958" gradientUnits="userSpaceOnUse"><stop stop-color="#6BAB2B"/><stop offset="1" stop-color="#84D52C" stop-opacity="0"/></linearGradient></defs></svg><svg fill="none" viewBox="0 0 10 8" id="check" xmlns="http://www.w3.org/2000/svg"><path d="M4.092 7.45a1.193 1.193 0 0 1-.846-.353L.982 4.833a1.196 1.196 0 1 1 1.692-1.691L4.092 4.56 7.912.74a1.197 1.197 0 0 1 1.691 1.693L4.935 7.1c-.224.224-.526.35-.843.351z" fill="#fff"/></svg><svg fill="none" viewBox="0 0 16 16" id="close" xmlns="http://www.w3.org/2000/svg"><path d="M8.075 14.71a6.825 6.825 0 1 0 0-13.65 6.825 6.825 0 0 0 0 13.65z" fill="#58AA46" fill-opacity=".9"/><path d="M10.25 5.56 8 7.81m0 0-2.25 2.25M8 7.81 5.75 5.56M8 7.81l2.25 2.25m4.65-2.176a6.825 6.825 0 1 1-13.65 0 6.825 6.825 0 0 1 13.65 0z" stroke="#fff" stroke-linecap="round"/></svg><svg fill="none" viewBox="0 0 24 24" id="date" xmlns="http://www.w3.org/2000/svg"><path d="M5.25.5a.25.25 0 0 1 .25.25V2h13V.75a.25.25 0 1 1 .5 0V2h2a2.5 2.5 0 0 1 2.5 2.5V21a2.5 2.5 0 0 1-2.5 2.5H3A2.5 2.5 0 0 1 .5 21V4.5A2.5 2.5 0 0 1 3 2h2V.75A.25.25 0 0 1 5.25.5zM3 2.5a2 2 0 0 0-2 2V21a2 2 0 0 0 2 2h18a2 2 0 0 0 2-2V4.5a2 2 0 0 0-2-2H3z" stroke="#84D52C"/><path d="M5.25.5a.25.25 0 0 1 .25.25V2h13V.75a.25.25 0 1 1 .5 0V2h2a2.5 2.5 0 0 1 2.5 2.5V21a2.5 2.5 0 0 1-2.5 2.5H3A2.5 2.5 0 0 1 .5 21V4.5A2.5 2.5 0 0 1 3 2h2V.75A.25.25 0 0 1 5.25.5zM3 2.5a2 2 0 0 0-2 2V21a2 2 0 0 0 2 2h18a2 2 0 0 0 2-2V4.5a2 2 0 0 0-2-2H3z" stroke="url(#fa)" stroke-opacity=".2"/><path d="M3.75 6a.75.75 0 0 1 .75-.75h15a.75.75 0 0 1 .75.75v1.5a.75.75 0 0 1-.75.75h-15a.75.75 0 0 1-.75-.75V6zm12.75 5.25a.75.75 0 0 1 .75-.75h1.5a.75.75 0 0 1 .75.75v1.5a.75.75 0 0 1-.75.75h-1.5a.75.75 0 0 1-.75-.75v-1.5zm-4.5 0a.75.75 0 0 1 .75-.75h1.5a.75.75 0 0 1 .75.75v1.5a.75.75 0 0 1-.75.75h-1.5a.75.75 0 0 1-.75-.75v-1.5zm-7.5 4.5a.75.75 0 0 1 .75-.75h1.5a.75.75 0 0 1 .75.75v1.5a.75.75 0 0 1-.75.75h-1.5a.75.75 0 0 1-.75-.75v-1.5zm4.5 0a.75.75 0 0 1 .75-.75h1.5a.75.75 0 0 1 .75.75v1.5a.75.75 0 0 1-.75.75h-1.5a.75.75 0 0 1-.75-.75v-1.5z" fill="#84D52C"/><path d="M3.75 6a.75.75 0 0 1 .75-.75h15a.75.75 0 0 1 .75.75v1.5a.75.75 0 0 1-.75.75h-15a.75.75 0 0 1-.75-.75V6zm12.75 5.25a.75.75 0 0 1 .75-.75h1.5a.75.75 0 0 1 .75.75v1.5a.75.75 0 0 1-.75.75h-1.5a.75.75 0 0 1-.75-.75v-1.5zm-4.5 0a.75.75 0 0 1 .75-.75h1.5a.75.75 0 0 1 .75.75v1.5a.75.75 0 0 1-.75.75h-1.5a.75.75 0 0 1-.75-.75v-1.5zm-7.5 4.5a.75.75 0 0 1 .75-.75h1.5a.75.75 0 0 1 .75.75v1.5a.75.75 0 0 1-.75.75h-1.5a.75.75 0 0 1-.75-.75v-1.5zm4.5 0a.75.75 0 0 1 .75-.75h1.5a.75.75 0 0 1 .75.75v1.5a.75.75 0 0 1-.75.75h-1.5a.75.75 0 0 1-.75-.75v-1.5z" fill="url(#fb)" fill-opacity=".2"/><defs><linearGradient id="fa" x1="24" y1="0" x2=".127" y2="1.437" gradientUnits="userSpaceOnUse"><stop stop-color="#6BAB2B"/><stop offset="1" stop-color="#84D52C" stop-opacity="0"/></linearGradient><linearGradient id="fb" x1="20.25" y1="5.25" x2="3.877" y2="6.525" gradientUnits="userSpaceOnUse"><stop stop-color="#6BAB2B"/><stop offset="1" stop-color="#84D52C" stop-opacity="0"/></linearGradient></defs></svg><svg fill="none" viewBox="0 0 21 20" id="leaf" xmlns="http://www.w3.org/2000/svg"><path d="M19.918 14.641c-.088-.053-2.182-1.311-4.8-1.311-.27 0-.537.01-.802.027a13.09 13.09 0 0 0 1.806-1.168c2.765-2.16 3.927-5.67 3.975-5.818a.418.418 0 0 0-.078-.398.427.427 0 0 0-.38-.143c-.12.018-2.954.464-5.55 2.824a17.913 17.913 0 0 0-1.894 2.042c.248-.965.423-2.048.423-3.203 0-3.993-2.064-7.183-2.152-7.316-.154-.235-.543-.235-.697 0C9.681.31 7.618 3.5 7.618 7.493c0 1.155.175 2.238.422 3.203a17.908 17.908 0 0 0-1.894-2.042C3.55 6.294.716 5.848.596 5.83a.43.43 0 0 0-.38.143.418.418 0 0 0-.078.398c.048.148 1.21 3.658 3.975 5.818a13.09 13.09 0 0 0 1.806 1.168 13.113 13.113 0 0 0-.801-.027c-2.618 0-4.713 1.258-4.8 1.311a.418.418 0 0 0 .002.714c.089.053 2.212 1.31 4.798 1.31.576 0 1.145-.082 1.685-.208a3.653 3.653 0 0 0-.852 2.31.418.418 0 0 0 .535.383c.063-.019 1.554-.474 2.697-1.795.204-.237.37-.471.518-.702v2.93a.417.417 0 1 0 .833 0v-2.93c.149.23.314.465.519.702 1.142 1.321 2.633 1.776 2.696 1.795a.423.423 0 0 0 .36-.06.418.418 0 0 0 .175-.322 3.652 3.652 0 0 0-.855-2.315 7.385 7.385 0 0 0 1.689.212c2.618 0 4.712-1.258 4.8-1.311a.418.418 0 0 0 0-.713zm-5.268-5.37a11.233 11.233 0 0 1 4.375-2.44c-.474 1.108-1.571 3.26-3.416 4.701-1.528 1.194-3.463 1.96-4.61 2.346.681-1.128 1.995-3.1 3.651-4.607zM4.626 11.532c-1.84-1.438-2.94-3.592-3.415-4.701.968.279 2.738.952 4.374 2.44 1.655 1.505 2.969 3.478 3.65 4.607-1.147-.386-3.081-1.153-4.609-2.346zm.492 4.3c-1.506 0-2.869-.485-3.658-.837.781-.35 2.132-.831 3.658-.831 1.51 0 3.015.31 3.942.548-.901.47-2.421 1.12-3.942 1.12zm3.435.977a5.46 5.46 0 0 1-1.684 1.281 2.7 2.7 0 0 1 .998-1.508c.626-.47 1.133-.82 1.519-1.073a5.384 5.384 0 0 1-.833 1.3zm1.638-3.207-.073.124-.074-.124c-.59-1.137-1.593-3.454-1.593-6.109 0-2.762 1.09-5.171 1.667-6.253.576 1.082 1.666 3.491 1.666 6.253 0 2.655-1.003 4.972-1.593 6.11zm1.492 3.207a5.359 5.359 0 0 1-.83-1.298c.385.253.89.603 1.515 1.07.62.467.886 1.064 1 1.512a5.442 5.442 0 0 1-1.685-1.284zm3.435-.978c-1.502 0-3.029-.65-3.938-1.121.927-.237 2.427-.546 3.938-.546 1.523 0 2.879.484 3.662.834-.782.35-2.135.834-3.662.834z" fill="#959595"/></svg><svg fill="none" viewBox="0 0 22 21" id="search" xmlns="http://www.w3.org/2000/svg"><path d="m20.725 18.312-3.71-3.68a9 9 0 1 0-1.39 1.39l3.68 3.68a.995.995 0 1 0 1.42-1.39zm-10.71-2.29a7 7 0 1 1 0-14 7 7 0 0 1 0 14z" fill="#959595"/></svg></svg>